<svg width="21" height="21" viewBox="0 0 21 21" fill="none" xmlns="http://www.w3.org/2000/svg">
<path d="M14.289 7.16895C15.6151 7.16895 16.8869 7.69573 17.8246 8.63341C18.7622 9.57109 19.289 10.8429 19.289 12.1689V18.0023H15.9557V12.1689C15.9557 11.7269 15.7801 11.303 15.4675 10.9904C15.155 10.6779 14.7311 10.5023 14.289 10.5023C13.847 10.5023 13.4231 10.6779 13.1105 10.9904C12.798 11.303 12.6224 11.7269 12.6224 12.1689V18.0023H9.28903V12.1689C9.28903 10.8429 9.81582 9.57109 10.7535 8.63341C11.6912 7.69573 12.9629 7.16895 14.289 7.16895V7.16895Z" fill="white"/>
<path d="M5.95568 8.00195H2.62234V18.002H5.95568V8.00195Z" fill="white"/>
<path d="M4.28901 5.50228C5.20949 5.50228 5.95568 4.75609 5.95568 3.83561C5.95568 2.91514 5.20949 2.16895 4.28901 2.16895C3.36854 2.16895 2.62234 2.91514 2.62234 3.83561C2.62234 4.75609 3.36854 5.50228 4.28901 5.50228Z" fill="white"/>
</svg>
