<svg width="54" height="67" viewBox="0 0 54 67" fill="none" xmlns="http://www.w3.org/2000/svg">
<path d="M21.7079 45.9013C21.0501 46.0657 20.5568 46.2302 20.0634 46.5591C19.4056 45.5723 18.9123 44.4212 18.2544 43.5989C17.1033 41.9543 15.7876 40.4742 14.6364 38.8297C12.8274 36.3629 11.3473 33.896 10.6895 30.7714C9.2094 23.042 13.4852 15.4771 20.8857 12.5169C30.5885 8.56997 41.7715 15.1482 43.2516 25.5088C43.9094 30.278 42.4293 34.225 39.798 38.0074C38.6468 39.652 37.1667 41.2965 36.0156 43.1055C35.1933 44.2567 34.6999 45.4079 33.8777 46.5591C33.5487 47.0524 33.2198 47.5458 32.7265 47.7103C28.944 49.1904 25.1615 50.506 21.3791 51.8216C20.8857 51.9861 20.5568 51.8216 20.3923 51.4927C20.2279 50.9994 20.2279 50.506 20.7213 50.3415C21.0502 50.1771 21.379 50.0126 21.7079 50.0126C24.997 48.8615 28.2861 47.7103 31.5753 46.3946C31.9042 46.2302 32.2331 45.9013 32.3975 45.5724C33.7132 43.1055 35.3577 41.1321 37.0023 38.8297C38.6468 36.6918 40.1269 34.7183 40.7847 32.087C42.4293 26.8245 41.2781 22.2197 37.6601 18.2728C33.5487 13.6681 28.2862 12.188 22.3658 13.997C16.4454 15.806 13.1563 19.9174 12.0051 26.0022C11.1828 30.278 12.6629 33.896 15.1298 37.1851C16.6098 39.1586 18.09 41.1321 19.5701 43.1055C20.5568 43.7633 21.0501 44.7501 21.7079 45.9013Z" fill="#EF09DA"/>
<path d="M20.8859 62.1823C20.7215 62.0179 20.3926 61.8534 20.3926 61.5245C20.3926 61.1956 20.5571 60.8667 20.7215 60.5378C20.7215 60.3733 21.0504 60.3733 21.2149 60.3733C24.8329 59.0577 28.6153 57.742 32.2334 56.4264C33.0556 56.0975 33.3845 56.2619 33.549 56.7553C33.7134 57.2487 33.3845 57.742 32.7267 58.0709C28.9442 59.3866 25.3262 60.7022 21.5438 62.1823C21.3793 62.0179 21.2148 62.0179 20.8859 62.1823Z" fill="#EF09DA"/>
<path d="M20.8859 56.7556C20.7215 56.5911 20.3926 56.4267 20.3926 56.0978C20.3926 55.7688 20.5571 55.4399 20.7215 55.111C20.7215 54.9466 21.0504 54.9466 21.2149 54.9466C24.8329 53.6309 28.6153 52.3153 32.2334 50.9997C33.0556 50.6707 33.3845 50.8352 33.549 51.3286C33.7134 51.8219 33.549 52.3153 32.7267 52.6442C28.9442 53.9598 25.3262 55.4399 21.5438 56.7556C21.3793 56.7556 21.2148 56.7556 20.8859 56.7556Z" fill="#EF09DA"/>
<path d="M32.7267 61.36C31.5755 65.3069 25.1618 67.6093 21.2148 65.4714C24.9973 64.1557 28.7798 62.6756 32.7267 61.36Z" fill="#EF09DA"/>
<path d="M27.793 3.80089C27.793 4.45871 27.793 5.11653 27.793 5.77435C27.793 6.26771 27.4641 6.59662 26.9707 6.59662C26.4773 6.59662 26.1484 6.26771 26.1484 5.77435C26.1484 4.45871 26.1484 3.14307 26.1484 1.66297C26.1484 1.16961 26.4773 0.840698 26.9707 0.840698C27.4641 0.840698 27.793 1.16961 27.793 1.66297C27.793 2.32079 27.793 3.14307 27.793 3.80089Z" fill="#EF09DA"/>
<path d="M2.96017 26.8247C3.61799 26.8247 4.27583 26.8247 4.93365 26.8247C5.59147 26.8247 5.92039 27.1536 5.92039 27.6469C5.92039 28.1403 5.59147 28.4692 4.93365 28.4692C3.61801 28.4692 2.30238 28.4692 0.98674 28.4692C0.32892 28.4692 0 28.1403 0 27.6469C0 27.1536 0.32892 26.8247 0.98674 26.8247C1.64456 26.8247 2.30235 26.8247 2.96017 26.8247Z" fill="#EF09DA"/>
<path d="M50.9811 28.6337C50.3232 28.6337 49.6654 28.6337 49.0076 28.6337C48.5142 28.6337 48.1853 28.3047 48.1853 27.8114C48.1853 27.318 48.5142 26.9891 49.0076 26.9891C50.3232 26.9891 51.8033 26.9891 53.119 26.9891C53.6123 26.9891 53.9412 27.318 53.9412 27.8114C53.9412 28.3047 53.6123 28.6337 53.119 28.6337C52.2967 28.6337 51.6389 28.6337 50.9811 28.6337Z" fill="#EF09DA"/>
<path d="M8.22291 8.07658C8.55182 8.24103 8.71627 8.40549 8.88072 8.56994C9.86745 9.55667 10.6897 10.3789 11.6765 11.3657C12.1698 11.859 12.1698 12.188 11.6765 12.6813C11.3476 13.0102 10.8542 13.0102 10.3608 12.6813C9.37408 11.6946 8.38738 10.8723 7.5651 9.88558C7.40065 9.72113 7.23618 9.22776 7.40064 8.89885C7.56509 8.40549 8.05846 8.24103 8.22291 8.07658Z" fill="#EF09DA"/>
<path d="M42.5941 42.4478C42.923 42.6123 43.0874 42.7767 43.2519 42.9412C44.2386 43.7634 45.0609 44.7502 46.0477 45.5724C46.541 46.0658 46.541 46.5592 46.2121 46.8881C45.8832 47.217 45.3898 47.217 44.8965 46.7236C43.9097 45.7369 43.0875 44.9146 42.1007 43.9279C41.9363 43.7634 41.7718 43.2701 41.9363 42.9412C41.9363 42.7767 42.2652 42.6123 42.5941 42.4478Z" fill="#EF09DA"/>
<path d="M46.5409 9.06354C46.3764 9.39245 46.212 9.55691 46.0475 9.72136C45.0608 10.7081 44.2385 11.5304 43.2518 12.5171C42.9228 12.846 42.4295 13.0105 41.9361 12.5171C41.6072 12.1882 41.6072 11.6948 41.9361 11.2015C42.9229 10.2147 43.7451 9.228 44.7318 8.40572C44.8963 8.24127 45.3897 8.07681 45.7186 8.24127C46.0475 8.40572 46.2119 8.89909 46.5409 9.06354Z" fill="#EF09DA"/>
<path d="M8.2226 47.217C8.05815 47.0526 7.72925 46.8881 7.56479 46.5592C7.40034 46.3947 7.56479 45.9014 7.56479 45.7369C8.55152 44.7502 9.53824 43.599 10.6894 42.6123C11.0183 42.2834 11.5117 42.2834 11.8406 42.6123C12.1695 42.9412 12.1695 43.4345 11.8406 43.7635C10.8538 44.7502 9.86714 45.7369 8.88041 46.7236C8.71595 47.0526 8.55151 47.217 8.2226 47.217Z" fill="#EF09DA"/>
</svg>
