<svg width="69" height="70" viewBox="0 0 69 70" fill="none" xmlns="http://www.w3.org/2000/svg">
<path d="M66.4358 2.79147C65.4084 2.79147 64.2097 2.79147 63.1822 2.79147C56.1613 3.13395 49.4829 4.67512 43.1469 7.75747C35.4411 11.3535 28.9339 16.4908 23.7967 23.3405C20.2006 27.964 17.632 33.1012 15.7483 38.581C15.5771 38.9234 15.7483 39.0947 15.9195 39.2659C17.4607 40.8071 19.0019 42.3483 20.5431 43.8894C20.7143 44.0607 20.8855 44.4032 20.8855 44.7457C20.8855 45.0881 20.7143 45.4306 20.3718 45.6019C20.0293 45.7731 19.5156 45.7731 19.3444 45.4306C18.4882 44.5744 17.8032 43.8894 16.947 43.0332C15.9195 42.0058 15.0633 40.9783 14.0359 40.1221C13.6934 39.7796 13.5222 39.2659 13.6934 38.7522C15.9195 32.0738 19.1731 25.9091 23.7967 20.4293C28.4202 14.7784 34.0711 10.3261 40.4071 7.0725C46.2293 3.99016 52.5652 2.1065 59.0724 1.25029C61.8123 0.907808 64.5521 0.736567 67.292 0.907808C68.1482 0.907808 68.3195 1.25029 68.4907 2.1065C68.8332 13.2372 66.0933 23.5117 60.0999 33.1012C54.1064 42.5195 45.8868 49.5404 35.6123 53.9927C34.0711 54.6777 32.3587 55.1914 30.6463 55.8764C30.1326 56.0476 29.7901 56.0476 29.4476 55.5339C27.7352 53.8215 25.8516 51.9378 24.1391 50.2254C23.7967 49.8829 23.6254 49.3692 23.9679 48.8554C24.3104 48.3417 24.9953 48.3417 25.5091 48.8554C27.0502 50.3966 28.5914 51.9378 30.1326 53.479C30.4751 53.8215 30.6463 53.8215 30.9888 53.6502C38.5234 51.0816 45.2018 46.9718 50.8528 41.4921C57.5312 34.9849 61.9835 27.279 64.5521 18.5457C65.9221 13.7509 66.607 8.78492 66.607 3.64767C66.607 3.30519 66.4358 3.13395 66.4358 2.79147Z" fill="#EF09DA"/>
<path d="M57.0177 22.8269C57.0177 28.6491 52.3942 33.2726 46.572 33.2726C40.7497 33.2726 36.1262 28.6491 36.1262 22.8269C36.1262 17.1759 40.7497 12.3812 46.4007 12.3812C52.3942 12.3812 57.0177 17.0047 57.0177 22.8269ZM54.9628 22.9982C54.9628 18.2034 51.1955 14.4361 46.4007 14.4361C41.606 14.4361 37.8386 18.2034 37.8386 22.9982C37.8386 27.7929 41.606 31.5602 46.4007 31.5602C51.1955 31.389 54.9628 27.6217 54.9628 22.9982Z" fill="#EF09DA"/>
<path d="M30.8178 66.6645C32.0164 65.9795 33.2151 65.1233 34.2426 64.2671C37.6674 61.1847 39.5511 57.4174 40.4073 52.9652C40.5785 52.2802 40.921 51.9377 41.4347 51.9377C42.1197 51.9377 42.4622 52.4514 42.4622 53.1364C42.2909 53.9926 42.1197 55.0201 41.7772 55.8763C39.8936 61.6985 36.4687 65.9795 31.1602 68.8906C29.9615 69.5756 29.4478 69.2331 29.2766 68.0344C28.5916 64.4383 27.9066 60.671 27.2217 57.0749C27.2217 56.7325 27.2217 56.39 27.2217 56.2187C27.3929 55.8763 27.7354 55.705 28.2491 55.705C28.5916 55.705 28.9341 56.0475 29.1053 56.39C29.2766 57.4174 29.4478 58.4449 29.7903 59.6436C29.9615 62.041 30.4753 64.2671 30.8178 66.6645Z" fill="#EF09DA"/>
<path d="M2.56276 38.4097C3.59021 38.581 4.61766 38.7522 5.47386 38.9235C7.87125 39.4372 10.2686 39.7797 12.4948 40.2934C12.666 40.2934 12.666 40.2934 12.8373 40.2934C13.351 40.4646 13.6935 40.9784 13.5222 41.4921C13.351 42.0058 13.0085 42.3483 12.3235 42.177C10.9536 41.8346 9.41242 41.6633 8.04249 41.3208C5.81635 40.8071 3.59021 40.4646 1.19283 39.9509C1.02158 39.9509 1.02158 39.9509 0.850342 39.9509C-0.00586579 39.7797 -0.177107 39.2659 0.165376 38.4097C1.19283 36.5261 2.39152 34.6424 3.93269 33.1012C7.18628 29.6764 11.1248 27.7928 15.5771 26.7653C15.7484 26.7653 15.9196 26.7653 15.9196 26.5941C16.4333 26.4228 16.9471 26.7653 17.1183 27.279C17.2895 27.7928 16.9471 28.3065 16.2621 28.4777C15.2346 28.8202 14.0359 28.9914 13.0085 29.3339C8.55621 30.8751 5.13138 33.615 2.56276 37.5535C2.734 38.0672 2.734 38.2385 2.56276 38.4097Z" fill="#EF09DA"/>
<path d="M14.7207 53.6503C14.8919 53.4791 15.0632 53.1366 15.2344 52.9653C18.488 49.7117 21.5704 46.6294 24.824 43.3758C26.0226 42.1771 27.0501 41.1497 28.2488 39.951C28.7625 39.4373 29.2762 39.4373 29.79 39.7797C30.1324 40.1222 30.1324 40.8072 29.6187 41.3209C25.8514 45.0882 22.0841 49.0268 18.1455 52.7941C17.6318 53.3078 17.1181 53.9928 16.4331 54.5065C16.0906 54.849 15.7482 54.849 15.4057 54.6778C14.8919 54.5065 14.7207 54.164 14.7207 53.6503Z" fill="#EF09DA"/>
<path d="M10.2687 58.1027C10.6112 58.274 10.9537 58.4452 11.125 58.7877C11.2962 59.1302 11.125 59.4727 10.9537 59.8152C10.7825 59.9864 10.44 60.3289 10.2687 60.6714C8.21385 62.7263 6.15895 64.9524 3.93281 67.0073C3.59032 67.1785 3.41908 67.3498 3.0766 67.3498C2.73412 67.3498 2.39163 67.1785 2.22039 66.8361C2.04915 66.3223 2.04915 65.9798 2.39163 65.6374C3.76156 64.2674 5.1315 62.8975 6.50143 61.5276C7.52888 60.5001 8.38509 59.6439 9.41254 58.6165C9.75502 58.4452 9.92626 58.274 10.2687 58.1027Z" fill="#EF09DA"/>
<path d="M8.72753 51.0816C9.58373 51.0816 10.0975 51.9378 9.75498 52.4515C9.58373 52.6228 9.58373 52.794 9.41249 52.9652C7.18635 55.1914 4.96021 57.4175 2.73407 59.6437L2.56283 59.8149C2.04911 60.1574 1.53538 60.3286 1.1929 59.8149C0.850414 59.4724 0.850414 58.7875 1.1929 58.445C2.90531 56.7326 4.61773 55.0201 6.33014 53.3077C7.01511 52.6228 7.52884 52.109 8.2138 51.5953C8.38504 51.2528 8.72753 51.0816 8.72753 51.0816Z" fill="#EF09DA"/>
<path d="M18.3171 60.6711C18.3171 60.8424 18.1458 61.0136 17.9746 61.3561C15.5772 63.7535 13.3511 65.9796 10.9537 68.377C10.44 68.8907 9.92624 68.8907 9.41252 68.377C9.07003 68.0345 9.07003 67.3495 9.58376 67.007C11.9811 64.6097 14.2073 62.3835 16.6047 59.9861C16.9471 59.6437 17.2896 59.4724 17.8034 59.6437C18.1458 59.8149 18.3171 59.9861 18.3171 60.6711Z" fill="#EF09DA"/>
</svg>
