<svg width="20" height="33" viewBox="0 0 20 33" fill="none" xmlns="http://www.w3.org/2000/svg">
<path d="M10.027 23.391C9.41683 23.391 8.9224 23.7935 8.9224 24.2903V29.4962L6.82868 28.0059C6.36942 27.6795 5.67218 27.7174 5.2704 28.0906C4.86861 28.4645 4.9152 29.0324 5.37447 29.3594L9.2994 32.1542C9.50894 32.303 9.76787 32.3764 10.026 32.3764H10.0268C10.2849 32.3764 10.5441 32.303 10.7534 32.1538L14.6764 29.359C15.1356 29.0319 15.182 28.464 14.7802 28.0904C14.3792 27.7165 13.6814 27.6793 13.2219 28.0059L11.1304 29.4955L11.1309 24.2898C11.1318 23.7935 10.6371 23.391 10.0272 23.391L10.027 23.391Z" fill="white"/>
<path d="M19.4689 16.2816V5.97816C19.4689 2.82177 16.3146 0.253906 12.4376 0.253906H7.61564C3.73786 0.253906 0.583008 2.82177 0.583008 5.97816V16.2816C0.583008 19.438 3.73786 22.0063 7.61564 22.0063H12.4376C16.3146 22.0063 19.4689 19.4382 19.4689 16.2816ZM17.2596 16.2816C17.2596 18.447 15.0967 20.2082 12.4371 20.2082H7.61564C4.95579 20.2082 2.792 18.447 2.792 16.2816V5.97816C2.792 3.81327 4.95607 2.05194 7.61564 2.05194H12.4376C15.0969 2.05194 17.2602 3.81321 17.2602 5.97816V16.2816H17.2596Z" fill="white"/>
<path d="M10.0275 5.35266C9.41727 5.35266 8.92285 5.75516 8.92285 6.25194V8.9236C8.92285 9.42037 9.41726 9.82288 10.0275 9.82288C10.6377 9.82288 11.1321 9.42037 11.1321 8.9236V6.25194C11.1321 5.7554 10.6374 5.35266 10.0275 5.35266Z" fill="white"/>
</svg>
